<svg width="550" height="550" xmlns="http://www.w3.org/2000/svg" xmlns:svg="http://www.w3.org/2000/svg">
 <!-- Created with SVG-edit - http://svg-edit.googlecode.com/ -->
 <g>
  <title>Circle</title>
  <circle cx="275" cy="275" r="270" stroke="#ffbe61" stroke-width="10" fill="transparent" id="svg_3"/>
 </g>
 <g stroke="null">
  <title>Cactus</title>
  <path stroke="null" fill="#2b9253" d="m116.241287,309.912018l101.05249,0l0,215.129608l121.261795,0l0,-152.383942l87.578156,0c26.044067,0 47.157898,-14.045776 47.157898,-31.373291l0,-156.864655c0,-17.326599 -21.112488,-31.373322 -47.157898,-31.373322s-47.156616,14.046722 -47.156616,31.373322l0,125.492279l-40.421539,0l0,-228.575455c0,-22.274128 -27.150146,-40.336575 -60.630951,-40.336575s-60.630814,18.062447 -60.630814,40.336575l0,165.828827l-53.89447,0l0,-116.528061c0,-17.326599 -21.112549,-31.373306 -47.15799,-31.373306s-47.157982,14.046677 -47.157982,31.373306l0,147.901337c0,17.327606 21.112526,31.373322 47.157982,31.373322l0,0l0,-0.000031l0,0.000031l0,0l-0.000015,0.000031l-0.000023,0l-0.000015,0l-0.000008,0z" id="svg_2"/>
 </g>
 <g>
  <title>Heart</title>
  <path fill="#ffbe61" d="m414.574005,221.276993c-2.134003,-6.020996 -1.859985,-4.979996 -3.721985,-10.070999c-12.697998,-31.908997 -45.654999,-45.339996 -76.700012,-39.930008c-29.399994,5.123001 -50.815002,31.75 -55.316986,50.001007c-0.01001,0 -0.018005,0 -0.028015,0l0,0l-6.979004,0l0,-0.018005l-0.000977,0c-4.502014,-18.25 -25.917023,-44.879013 -55.317001,-50.000992c-31.044022,-5.409012 -64.001022,8.020996 -76.700012,39.929977c-1.860977,5.091003 -1.587021,4.05098 -3.722,10.071014c-32.621994,122.603012 87.136032,105.634995 139.242981,196.603012l0,-0.045013l0,0.063995c52.106995,-90.96698 171.864014,-73.998993 139.243011,-196.603989z" id="svg_6"/>
 </g>
 <g>
  <title>Layer 1</title>
  <text fill="#2b9253" stroke-width="0" stroke-dasharray="null" stroke-linejoin="null" stroke-linecap="null" x="260.27471" y="306.71875" id="svg_9" font-size="24" font-family="Serif" text-anchor="middle" xml:space="preserve" font-weight="bold" transform="matrix(5.658025741577148,0,0,4.92307710647583,-1198.56824862957,-1192.6154403686523) ">S J</text>
 </g>
</svg>
